solid TwoBoardsThroghPlaneWith30mmHole v2.005
facet normal 0.000000 0.000000 -1.000000
outer loop
vertex 389.500000 -305.454346 -8.000000
vertex 385.500000 -303.122498 -8.000000
vertex 389.500000 -303.122498 -8.000000
endloop
endfacet
facet normal 0.000000 0.000000 -1.000000
outer loop
vertex 389.500000 -303.122498 -8.000000
vertex 385.500000 -303.122498 -8.000000
vertex 385.500000 -296.877502 -8.000000
endloop
endfacet
facet normal 0.000000 0.000000 -1.000000
outer loop
vertex 389.500000 -303.122498 -8.000000
vertex 385.500000 -296.877502 -8.000000
vertex 389.500000 -296.877502 -8.000000
endloop
endfacet
facet normal 0.000000 0.000000 -1.000000
outer loop
vertex 389.500000 -296.877502 -8.000000
vertex 385.500000 -296.877502 -8.000000
vertex 385.500000 -294.545654 -8.000000
endloop
endfacet
facet normal 0.000000 0.000000 -1.000000
outer loop
vertex 389.500000 -296.877502 -8.000000
vertex 385.500000 -294.545654 -8.000000
vertex 389.500000 -294.545654 -8.000000
endloop
endfacet
facet normal 0.000000 0.000000 -1.000000
outer loop
vertex 389.500000 -305.454346 -8.000000
vertex 385.500000 -305.454346 -8.000000
vertex 385.500000 -303.122498 -8.000000
endloop
endfacet
facet normal 0.000000 0.000000 -1.000000
outer loop
vertex 377.500000 -303.122498 -8.000000
vertex 377.500000 -296.877502 -8.000000
vertex 385.500000 -303.122498 -8.000000
endloop
endfacet
facet normal 0.000000 0.000000 -1.000000
outer loop
vertex 385.500000 -303.122498 -8.000000
vertex 377.500000 -296.877502 -8.000000
vertex 385.500000 -296.877502 -8.000000
endloop
endfacet
facet normal 0.000000 0.000000 -1.000000
outer loop
vertex 397.500000 -296.877502 -8.000000
vertex 397.500000 -303.122498 -8.000000
vertex 389.500000 -296.877502 -8.000000
endloop
endfacet
facet normal 0.000000 0.000000 -1.000000
outer loop
vertex 389.500000 -296.877502 -8.000000
vertex 397.500000 -303.122498 -8.000000
vertex 389.500000 -303.122498 -8.000000
endloop
endfacet
facet normal 1.000000 0.000000 0.000000
outer loop
vertex 397.500000 -296.877502 -8.000000
vertex 397.500000 -296.378815 -7.199117
vertex 397.500000 -303.122498 -8.000000
endloop
endfacet
facet normal 1.000000 0.000000 0.000000
outer loop
vertex 397.500000 -303.122498 -8.000000
vertex 397.500000 -296.378815 -7.199117
vertex 397.500000 -303.621185 -7.199117
endloop
endfacet
facet normal 1.000000 0.000000 0.000000
outer loop
vertex 397.500000 -303.621185 -7.199117
vertex 397.500000 -296.378815 -7.199117
vertex 397.500000 -296.081573 -6.303710
endloop
endfacet
facet normal 1.000000 0.000000 0.000000
outer loop
vertex 397.500000 -303.621185 -7.199117
vertex 397.500000 -296.081573 -6.303710
vertex 397.500000 -303.918427 -6.303710
endloop
endfacet
facet normal 1.000000 0.000000 0.000000
outer loop
vertex 397.500000 -303.918427 -6.303710
vertex 397.500000 -296.081573 -6.303710
vertex 397.500000 -296.002319 -5.363591
endloop
endfacet
facet normal 1.000000 0.000000 0.000000
outer loop
vertex 397.500000 -303.918427 -6.303710
vertex 397.500000 -296.002319 -5.363591
vertex 397.500000 -303.997681 -5.363591
endloop
endfacet
facet normal 1.000000 0.000000 0.000000
outer loop
vertex 397.500000 -303.997681 -5.363591
vertex 397.500000 -296.002319 -5.363591
vertex 397.500000 -296.145477 -4.431061
endloop
endfacet
facet normal 1.000000 0.000000 0.000000
outer loop
vertex 397.500000 -303.997681 -5.363591
vertex 397.500000 -296.145477 -4.431061
vertex 397.500000 -303.854523 -4.431061
endloop
endfacet
facet normal 1.000000 0.000000 0.000000
outer loop
vertex 397.500000 -303.854523 -4.431061
vertex 397.500000 -296.145477 -4.431061
vertex 397.500000 -296.503052 -3.557997
endloop
endfacet
facet normal 1.000000 0.000000 0.000000
outer loop
vertex 397.500000 -303.854523 -4.431061
vertex 397.500000 -296.503052 -3.557997
vertex 397.500000 -303.496948 -3.557997
endloop
endfacet
facet normal 1.000000 0.000000 0.000000
outer loop
vertex 397.500000 -303.496948 -3.557997
vertex 397.500000 -296.503052 -3.557997
vertex 397.500000 -297.055176 -2.792970
endloop
endfacet
facet normal 1.000000 0.000020 0.000000
outer loop
vertex 397.500000 -303.496948 -3.557997
vertex 397.500000 -297.055176 -2.792970
vertex 397.500000 -297.771118 -2.178539
endloop
endfacet
facet normal 1.000000 -0.000034 0.000000
outer loop
vertex 397.500000 -297.771118 -2.178539
vertex 397.500000 -298.611053 -1.748886
vertex 397.500000 -303.496948 -3.557997
endloop
endfacet
facet normal 1.000000 0.000022 0.000000
outer loop
vertex 397.500000 -303.496948 -3.557997
vertex 397.500000 -298.611053 -1.748886
vertex 397.500000 -299.528259 -1.527913
endloop
endfacet
facet normal 1.000000 0.000000 0.000000
outer loop
vertex 397.500000 -303.496948 -3.557997
vertex 397.500000 -299.528259 -1.527913
vertex 397.500000 -300.471741 -1.527913
endloop
endfacet
facet normal 1.000000 0.000000 0.000000
outer loop
vertex 397.500000 -300.471741 -1.527913
vertex 397.500000 -301.388947 -1.748886
vertex 397.500000 -303.496948 -3.557997
endloop
endfacet
facet normal 1.000000 0.000149 0.000000
outer loop
vertex 397.500000 -303.496948 -3.557997
vertex 397.500000 -301.388947 -1.748886
vertex 397.500000 -302.228882 -2.178539
endloop
endfacet
facet normal 1.000000 -0.000439 0.000000
outer loop
vertex 397.500000 -303.496948 -3.557997
vertex 397.500000 -302.228882 -2.178539
vertex 397.500000 -302.944824 -2.792970
endloop
endfacet
facet normal -1.000000 0.000000 0.000000
outer loop
vertex 385.500000 -303.122498 -8.000000
vertex 385.500000 -305.454346 -8.000000
vertex 385.500000 -303.621185 -7.199117
endloop
endfacet
facet normal -1.000000 0.000000 0.000000
outer loop
vertex 385.500000 -303.621185 -7.199117
vertex 385.500000 -305.454346 -8.000000
vertex 385.500000 -305.829102 -6.921814
endloop
endfacet
facet normal -1.000000 0.000000 0.000000
outer loop
vertex 385.500000 -303.621185 -7.199117
vertex 385.500000 -305.829102 -6.921814
vertex 385.500000 -303.918427 -6.303710
endloop
endfacet
facet normal -1.000000 0.000000 0.000000
outer loop
vertex 385.500000 -303.918427 -6.303710
vertex 385.500000 -305.829102 -6.921814
vertex 385.500000 -305.992889 -5.792169
endloop
endfacet
facet normal -1.000000 0.000000 0.000000
outer loop
vertex 385.500000 -303.918427 -6.303710
vertex 385.500000 -305.992889 -5.792169
vertex 385.500000 -303.997681 -5.363591
endloop
endfacet
facet normal -1.000000 0.000000 0.000000
outer loop
vertex 385.500000 -303.997681 -5.363591
vertex 385.500000 -305.992889 -5.792169
vertex 385.500000 -305.939758 -4.651950
endloop
endfacet
facet normal -1.000000 -0.000008 0.000000
outer loop
vertex 385.500000 -303.997681 -5.363591
vertex 385.500000 -305.939758 -4.651950
vertex 385.500000 -303.854523 -4.431061
endloop
endfacet
facet normal -1.000000 0.000000 0.000000
outer loop
vertex 385.500000 -303.854523 -4.431061
vertex 385.500000 -305.939758 -4.651950
vertex 385.500000 -305.671661 -3.542424
endloop
endfacet
facet normal -1.000000 0.000015 0.000000
outer loop
vertex 385.500000 -303.854523 -4.431061
vertex 385.500000 -305.671661 -3.542424
vertex 385.500000 -303.496948 -3.557997
endloop
endfacet
facet normal -1.000000 0.000027 0.000000
outer loop
vertex 385.500000 -303.496948 -3.557997
vertex 385.500000 -305.671661 -3.542424
vertex 385.500000 -305.198303 -2.503747
endloop
endfacet
facet normal -1.000000 0.000000 0.000000
outer loop
vertex 385.500000 -303.496948 -3.557997
vertex 385.500000 -305.198303 -2.503747
vertex 385.500000 -302.944824 -2.792970
endloop
endfacet
facet normal -1.000000 0.000000 0.000000
outer loop
vertex 385.500000 -302.944824 -2.792970
vertex 385.500000 -305.198303 -2.503747
vertex 385.500000 -304.536804 -1.573511
endloop
endfacet
facet normal -1.000000 0.000000 0.000000
outer loop
vertex 385.500000 -302.944824 -2.792970
vertex 385.500000 -304.536804 -1.573511
vertex 385.500000 -302.228882 -2.178539
endloop
endfacet
facet normal -1.000000 -0.000026 0.000000
outer loop
vertex 385.500000 -302.228882 -2.178539
vertex 385.500000 -304.536804 -1.573511
vertex 385.500000 -303.711121 -0.785384
endloop
endfacet
facet normal -1.000000 0.000034 0.000000
outer loop
vertex 385.500000 -302.228882 -2.178539
vertex 385.500000 -303.711121 -0.785384
vertex 385.500000 -301.388947 -1.748886
endloop
endfacet
facet normal -1.000000 -0.000013 0.000000
outer loop
vertex 385.500000 -301.388947 -1.748886
vertex 385.500000 -303.711121 -0.785384
vertex 385.500000 -302.751099 -0.167889
endloop
endfacet
facet normal -1.000000 0.000000 0.000000
outer loop
vertex 385.500000 -301.388947 -1.748886
vertex 385.500000 -302.751099 -0.167889
vertex 385.500000 -301.691528 0.256625
endloop
endfacet
facet normal -1.000000 0.000000 0.000000
outer loop
vertex 385.500000 -301.388947 -1.748886
vertex 385.500000 -301.691528 0.256625
vertex 385.500000 -300.471741 -1.527913
endloop
endfacet
facet normal -1.000000 -0.000054 0.000000
outer loop
vertex 385.500000 -300.471741 -1.527913
vertex 385.500000 -301.691528 0.256625
vertex 385.500000 -300.570740 0.472794
endloop
endfacet
facet normal -1.000000 0.000000 0.000000
outer loop
vertex 385.500000 -300.471741 -1.527913
vertex 385.500000 -300.570740 0.472794
vertex 385.500000 -299.528259 -1.527913
endloop
endfacet
facet normal -1.000000 0.000000 0.000000
outer loop
vertex 385.500000 -299.528259 -1.527913
vertex 385.500000 -300.570740 0.472794
vertex 385.500000 -299.429260 0.472794
endloop
endfacet
facet normal -1.000000 0.000054 0.000000
outer loop
vertex 385.500000 -299.528259 -1.527913
vertex 385.500000 -299.429260 0.472794
vertex 385.500000 -298.308472 0.256625
endloop
endfacet
facet normal -1.000000 0.000000 0.000000
outer loop
vertex 385.500000 -299.528259 -1.527913
vertex 385.500000 -298.308472 0.256625
vertex 385.500000 -298.611053 -1.748886
endloop
endfacet
facet normal -1.000000 0.000000 0.000000
outer loop
vertex 385.500000 -298.611053 -1.748886
vertex 385.500000 -298.308472 0.256625
vertex 385.500000 -297.248901 -0.167889
endloop
endfacet
facet normal -1.000000 0.000013 0.000000
outer loop
vertex 385.500000 -298.611053 -1.748886
vertex 385.500000 -297.248901 -0.167889
vertex 385.500000 -296.288879 -0.785384
endloop
endfacet
facet normal -1.000000 -0.000068 0.000000
outer loop
vertex 385.500000 -298.611053 -1.748886
vertex 385.500000 -296.288879 -0.785384
vertex 385.500000 -297.771118 -2.178539
endloop
endfacet
facet normal -1.000000 0.000026 0.000000
outer loop
vertex 385.500000 -297.771118 -2.178539
vertex 385.500000 -296.288879 -0.785384
vertex 385.500000 -295.463196 -1.573511
endloop
endfacet
facet normal -1.000000 0.000000 0.000000
outer loop
vertex 385.500000 -297.771118 -2.178539
vertex 385.500000 -295.463196 -1.573511
vertex 385.500000 -297.055176 -2.792970
endloop
endfacet
facet normal -1.000000 0.000000 0.000000
outer loop
vertex 385.500000 -297.055176 -2.792970
vertex 385.500000 -295.463196 -1.573511
vertex 385.500000 -294.801697 -2.503747
endloop
endfacet
facet normal -1.000000 0.000000 0.000000
outer loop
vertex 385.500000 -297.055176 -2.792970
vertex 385.500000 -294.801697 -2.503747
vertex 385.500000 -296.503052 -3.557997
endloop
endfacet
facet normal -1.000000 -0.000027 0.000000
outer loop
vertex 385.500000 -296.503052 -3.557997
vertex 385.500000 -294.801697 -2.503747
vertex 385.500000 -294.328339 -3.542424
endloop
endfacet
facet normal -1.000000 0.000000 0.000000
outer loop
vertex 385.500000 -296.503052 -3.557997
vertex 385.500000 -294.328339 -3.542424
vertex 385.500000 -296.145477 -4.431061
endloop
endfacet
facet normal -1.000000 0.000000 0.000000
outer loop
vertex 385.500000 -296.145477 -4.431061
vertex 385.500000 -294.328339 -3.542424
vertex 385.500000 -294.060242 -4.651950
endloop
endfacet
facet normal -1.000000 0.000000 0.000000
outer loop
vertex 385.500000 -296.145477 -4.431061
vertex 385.500000 -294.060242 -4.651950
vertex 385.500000 -296.002319 -5.363591
endloop
endfacet
facet normal -1.000000 0.000000 0.000000
outer loop
vertex 385.500000 -296.002319 -5.363591
vertex 385.500000 -294.060242 -4.651950
vertex 385.500000 -294.007111 -5.792169
endloop
endfacet
facet normal -1.000000 0.000000 0.000000
outer loop
vertex 385.500000 -296.002319 -5.363591
vertex 385.500000 -294.007111 -5.792169
vertex 385.500000 -296.081573 -6.303710
endloop
endfacet
facet normal -1.000000 0.000000 0.000000
outer loop
vertex 385.500000 -296.081573 -6.303710
vertex 385.500000 -294.007111 -5.792169
vertex 385.500000 -294.170898 -6.921814
endloop
endfacet
facet normal -1.000000 0.000000 0.000000
outer loop
vertex 385.500000 -296.081573 -6.303710
vertex 385.500000 -294.170898 -6.921814
vertex 385.500000 -296.378815 -7.199117
endloop
endfacet
facet normal -1.000000 0.000000 0.000000
outer loop
vertex 385.500000 -296.378815 -7.199117
vertex 385.500000 -294.170898 -6.921814
vertex 385.500000 -294.545654 -8.000000
endloop
endfacet
facet normal -1.000000 0.000000 0.000000
outer loop
vertex 385.500000 -296.378815 -7.199117
vertex 385.500000 -294.545654 -8.000000
vertex 385.500000 -296.877502 -8.000000
endloop
endfacet
facet normal 0.000000 -0.848901 -0.528552
outer loop
vertex 389.500000 -303.122498 -8.000000
vertex 397.500000 -303.122498 -8.000000
vertex 389.500000 -303.621185 -7.199117
endloop
endfacet
facet normal 0.000000 -0.848870 -0.528602
outer loop
vertex 389.500000 -303.621185 -7.199117
vertex 397.500000 -303.122498 -8.000000
vertex 397.500000 -303.621185 -7.199117
endloop
endfacet
facet normal 0.000000 -0.949073 -0.315056
outer loop
vertex 389.500000 -303.621185 -7.199117
vertex 397.500000 -303.621185 -7.199117
vertex 389.500000 -303.918427 -6.303710
endloop
endfacet
facet normal 0.000000 -0.949072 -0.315058
outer loop
vertex 389.500000 -303.918427 -6.303710
vertex 397.500000 -303.621185 -7.199117
vertex 397.500000 -303.918427 -6.303710
endloop
endfacet
facet normal 0.000000 -0.996463 -0.084037
outer loop
vertex 389.500000 -303.918427 -6.303710
vertex 397.500000 -303.918427 -6.303710
vertex 389.500000 -303.997681 -5.363591
endloop
endfacet
facet normal 0.000000 -0.996468 -0.083972
outer loop
vertex 389.500000 -303.997681 -5.363591
vertex 397.500000 -303.918427 -6.303710
vertex 397.500000 -303.997681 -5.363591
endloop
endfacet
facet normal 0.000000 -0.988416 0.151769
outer loop
vertex 389.500000 -303.997681 -5.363591
vertex 397.500000 -303.997681 -5.363591
vertex 389.500000 -303.854523 -4.431061
endloop
endfacet
facet normal 0.000000 -0.988426 0.151706
outer loop
vertex 389.500000 -303.854523 -4.431061
vertex 397.500000 -303.997681 -5.363591
vertex 397.500000 -303.854523 -4.431061
endloop
endfacet
facet normal 0.000000 -0.925382 0.379035
outer loop
vertex 389.500000 -303.854523 -4.431061
vertex 397.500000 -303.854523 -4.431061
vertex 389.500000 -303.496948 -3.557997
endloop
endfacet
facet normal 0.000000 -0.925405 0.378980
outer loop
vertex 389.500000 -303.496948 -3.557997
vertex 397.500000 -303.854523 -4.431061
vertex 397.500000 -303.496948 -3.557997
endloop
endfacet
facet normal 0.000000 -0.810879 0.585214
outer loop
vertex 389.500000 -303.496948 -3.557997
vertex 397.500000 -303.496948 -3.557997
vertex 389.500000 -302.944824 -2.792970
endloop
endfacet
facet normal 0.000000 -0.810876 0.585217
outer loop
vertex 389.500000 -302.944824 -2.792970
vertex 397.500000 -303.496948 -3.557997
vertex 397.500000 -302.944824 -2.792970
endloop
endfacet
facet normal 0.000000 -0.651261 0.758854
outer loop
vertex 389.500000 -302.944824 -2.792970
vertex 397.500000 -302.944824 -2.792970
vertex 389.500000 -302.228882 -2.178539
endloop
endfacet
facet normal 0.000000 -0.651258 0.758856
outer loop
vertex 389.500000 -302.228882 -2.178539
vertex 397.500000 -302.944824 -2.792970
vertex 397.500000 -302.228882 -2.178539
endloop
endfacet
facet normal 0.000000 -0.455394 0.890290
outer loop
vertex 389.500000 -302.228882 -2.178539
vertex 397.500000 -302.228882 -2.178539
vertex 389.500000 -301.388947 -1.748886
endloop
endfacet
facet normal 0.000000 -0.455421 0.890276
outer loop
vertex 389.500000 -301.388947 -1.748886
vertex 397.500000 -302.228882 -2.178539
vertex 397.500000 -301.388947 -1.748886
endloop
endfacet
facet normal 0.000000 -0.234225 0.972182
outer loop
vertex 389.500000 -301.388947 -1.748886
vertex 397.500000 -301.388947 -1.748886
vertex 389.500000 -300.471741 -1.527913
endloop
endfacet
facet normal 0.000000 -0.234212 0.972186
outer loop
vertex 389.500000 -300.471741 -1.527913
vertex 397.500000 -301.388947 -1.748886
vertex 397.500000 -300.471741 -1.527913
endloop
endfacet
facet normal 0.000000 0.000000 1.000000
outer loop
vertex 389.500000 -300.471741 -1.527913
vertex 397.500000 -300.471741 -1.527913
vertex 389.500000 -299.528259 -1.527913
endloop
endfacet
facet normal 0.000000 0.000000 1.000000
outer loop
vertex 389.500000 -299.528259 -1.527913
vertex 397.500000 -300.471741 -1.527913
vertex 397.500000 -299.528259 -1.527913
endloop
endfacet
facet normal 0.000000 0.234210 0.972186
outer loop
vertex 389.500000 -299.528259 -1.527913
vertex 397.500000 -299.528259 -1.527913
vertex 389.500000 -298.611053 -1.748886
endloop
endfacet
facet normal 0.000000 0.234227 0.972182
outer loop
vertex 389.500000 -298.611053 -1.748886
vertex 397.500000 -299.528259 -1.527913
vertex 397.500000 -298.611053 -1.748886
endloop
endfacet
facet normal 0.000000 0.455421 0.890276
outer loop
vertex 389.500000 -298.611053 -1.748886
vertex 397.500000 -298.611053 -1.748886
vertex 389.500000 -297.771118 -2.178539
endloop
endfacet
facet normal 0.000000 0.455394 0.890290
outer loop
vertex 389.500000 -297.771118 -2.178539
vertex 397.500000 -298.611053 -1.748886
vertex 397.500000 -297.771118 -2.178539
endloop
endfacet
facet normal 0.000000 0.651261 0.758854
outer loop
vertex 389.500000 -297.771118 -2.178539
vertex 397.500000 -297.771118 -2.178539
vertex 389.500000 -297.055176 -2.792970
endloop
endfacet
facet normal 0.000000 0.651258 0.758856
outer loop
vertex 389.500000 -297.055176 -2.792970
vertex 397.500000 -297.771118 -2.178539
vertex 397.500000 -297.055176 -2.792970
endloop
endfacet
facet normal 0.000000 0.810879 0.585214
outer loop
vertex 389.500000 -297.055176 -2.792970
vertex 397.500000 -297.055176 -2.792970
vertex 389.500000 -296.503052 -3.557997
endloop
endfacet
facet normal 0.000000 0.810876 0.585217
outer loop
vertex 389.500000 -296.503052 -3.557997
vertex 397.500000 -297.055176 -2.792970
vertex 397.500000 -296.503052 -3.557997
endloop
endfacet
facet normal 0.000000 0.925405 0.378980
outer loop
vertex 389.500000 -296.503052 -3.557997
vertex 397.500000 -296.503052 -3.557997
vertex 389.500000 -296.145477 -4.431061
endloop
endfacet
facet normal 0.000000 0.925382 0.379035
outer loop
vertex 389.500000 -296.145477 -4.431061
vertex 397.500000 -296.503052 -3.557997
vertex 397.500000 -296.145477 -4.431061
endloop
endfacet
facet normal 0.000000 0.988426 0.151706
outer loop
vertex 389.500000 -296.145477 -4.431061
vertex 397.500000 -296.145477 -4.431061
vertex 389.500000 -296.002319 -5.363591
endloop
endfacet
facet normal 0.000000 0.988416 0.151769
outer loop
vertex 389.500000 -296.002319 -5.363591
vertex 397.500000 -296.145477 -4.431061
vertex 397.500000 -296.002319 -5.363591
endloop
endfacet
facet normal 0.000000 0.996468 -0.083972
outer loop
vertex 389.500000 -296.002319 -5.363591
vertex 397.500000 -296.002319 -5.363591
vertex 389.500000 -296.081573 -6.303710
endloop
endfacet
facet normal 0.000000 0.996463 -0.084037
outer loop
vertex 389.500000 -296.081573 -6.303710
vertex 397.500000 -296.002319 -5.363591
vertex 397.500000 -296.081573 -6.303710
endloop
endfacet
facet normal 0.000000 0.949073 -0.315056
outer loop
vertex 389.500000 -296.081573 -6.303710
vertex 397.500000 -296.081573 -6.303710
vertex 389.500000 -296.378815 -7.199117
endloop
endfacet
facet normal 0.000000 0.949072 -0.315058
outer loop
vertex 389.500000 -296.378815 -7.199117
vertex 397.500000 -296.081573 -6.303710
vertex 397.500000 -296.378815 -7.199117
endloop
endfacet
facet normal 0.000000 0.848872 -0.528598
outer loop
vertex 389.500000 -296.378815 -7.199117
vertex 397.500000 -296.378815 -7.199117
vertex 389.500000 -296.877502 -8.000000
endloop
endfacet
facet normal 0.000000 0.848899 -0.528555
outer loop
vertex 389.500000 -296.877502 -8.000000
vertex 397.500000 -296.378815 -7.199117
vertex 397.500000 -296.877502 -8.000000
endloop
endfacet
facet normal 0.000000 -0.848901 -0.528552
outer loop
vertex 377.500000 -303.122498 -8.000000
vertex 385.500000 -303.122498 -8.000000
vertex 377.500000 -303.621185 -7.199117
endloop
endfacet
facet normal 0.000000 -0.848870 -0.528602
outer loop
vertex 377.500000 -303.621185 -7.199117
vertex 385.500000 -303.122498 -8.000000
vertex 385.500000 -303.621185 -7.199117
endloop
endfacet
facet normal 0.000000 -0.949073 -0.315056
outer loop
vertex 377.500000 -303.621185 -7.199117
vertex 385.500000 -303.621185 -7.199117
vertex 377.500000 -303.918427 -6.303710
endloop
endfacet
facet normal 0.000000 -0.949073 -0.315056
outer loop
vertex 377.500000 -303.918427 -6.303710
vertex 385.500000 -303.621185 -7.199117
vertex 385.500000 -303.918427 -6.303710
endloop
endfacet
facet normal 0.000000 -0.996463 -0.084037
outer loop
vertex 377.500000 -303.918427 -6.303710
vertex 385.500000 -303.918427 -6.303710
vertex 377.500000 -303.997681 -5.363591
endloop
endfacet
facet normal 0.000000 -0.996468 -0.083972
outer loop
vertex 377.500000 -303.997681 -5.363591
vertex 385.500000 -303.918427 -6.303710
vertex 385.500000 -303.997681 -5.363591
endloop
endfacet
facet normal 0.000000 -0.988416 0.151769
outer loop
vertex 377.500000 -303.997681 -5.363591
vertex 385.500000 -303.997681 -5.363591
vertex 377.500000 -303.854523 -4.431061
endloop
endfacet
facet normal 0.000000 -0.988426 0.151706
outer loop
vertex 377.500000 -303.854523 -4.431061
vertex 385.500000 -303.997681 -5.363591
vertex 385.500000 -303.854523 -4.431061
endloop
endfacet
facet normal 0.000000 -0.925383 0.379032
outer loop
vertex 377.500000 -303.854523 -4.431061
vertex 385.500000 -303.854523 -4.431061
vertex 377.500000 -303.496948 -3.557997
endloop
endfacet
facet normal 0.000000 -0.925405 0.378980
outer loop
vertex 377.500000 -303.496948 -3.557997
vertex 385.500000 -303.854523 -4.431061
vertex 385.500000 -303.496948 -3.557997
endloop
endfacet
facet normal 0.000000 -0.810879 0.585214
outer loop
vertex 377.500000 -303.496948 -3.557997
vertex 385.500000 -303.496948 -3.557997
vertex 377.500000 -302.944824 -2.792970
endloop
endfacet
facet normal 0.000000 -0.810879 0.585214
outer loop
vertex 377.500000 -302.944824 -2.792970
vertex 385.500000 -303.496948 -3.557997
vertex 385.500000 -302.944824 -2.792970
endloop
endfacet
facet normal 0.000000 -0.651261 0.758854
outer loop
vertex 377.500000 -302.944824 -2.792970
vertex 385.500000 -302.944824 -2.792970
vertex 377.500000 -302.228882 -2.178539
endloop
endfacet
facet normal 0.000000 -0.651258 0.758856
outer loop
vertex 377.500000 -302.228882 -2.178539
vertex 385.500000 -302.944824 -2.792970
vertex 385.500000 -302.228882 -2.178539
endloop
endfacet
facet normal 0.000000 -0.455394 0.890290
outer loop
vertex 377.500000 -302.228882 -2.178539
vertex 385.500000 -302.228882 -2.178539
vertex 377.500000 -301.388947 -1.748886
endloop
endfacet
facet normal 0.000000 -0.455421 0.890276
outer loop
vertex 377.500000 -301.388947 -1.748886
vertex 385.500000 -302.228882 -2.178539
vertex 385.500000 -301.388947 -1.748886
endloop
endfacet
facet normal 0.000000 -0.234227 0.972182
outer loop
vertex 377.500000 -301.388947 -1.748886
vertex 385.500000 -301.388947 -1.748886
vertex 377.500000 -300.471741 -1.527913
endloop
endfacet
facet normal 0.000000 -0.234210 0.972186
outer loop
vertex 377.500000 -300.471741 -1.527913
vertex 385.500000 -301.388947 -1.748886
vertex 385.500000 -300.471741 -1.527913
endloop
endfacet
facet normal 0.000000 0.000000 1.000000
outer loop
vertex 377.500000 -300.471741 -1.527913
vertex 385.500000 -300.471741 -1.527913
vertex 377.500000 -299.528259 -1.527913
endloop
endfacet
facet normal 0.000000 0.000000 1.000000
outer loop
vertex 377.500000 -299.528259 -1.527913
vertex 385.500000 -300.471741 -1.527913
vertex 385.500000 -299.528259 -1.527913
endloop
endfacet
facet normal 0.000000 0.234212 0.972186
outer loop
vertex 377.500000 -299.528259 -1.527913
vertex 385.500000 -299.528259 -1.527913
vertex 377.500000 -298.611053 -1.748886
endloop
endfacet
facet normal 0.000000 0.234225 0.972182
outer loop
vertex 377.500000 -298.611053 -1.748886
vertex 385.500000 -299.528259 -1.527913
vertex 385.500000 -298.611053 -1.748886
endloop
endfacet
facet normal 0.000000 0.455421 0.890276
outer loop
vertex 377.500000 -298.611053 -1.748886
vertex 385.500000 -298.611053 -1.748886
vertex 377.500000 -297.771118 -2.178539
endloop
endfacet
facet normal 0.000000 0.455394 0.890290
outer loop
vertex 377.500000 -297.771118 -2.178539
vertex 385.500000 -298.611053 -1.748886
vertex 385.500000 -297.771118 -2.178539
endloop
endfacet
facet normal 0.000000 0.651261 0.758854
outer loop
vertex 377.500000 -297.771118 -2.178539
vertex 385.500000 -297.771118 -2.178539
vertex 377.500000 -297.055176 -2.792970
endloop
endfacet
facet normal 0.000000 0.651258 0.758856
outer loop
vertex 377.500000 -297.055176 -2.792970
vertex 385.500000 -297.771118 -2.178539
vertex 385.500000 -297.055176 -2.792970
endloop
endfacet
facet normal 0.000000 0.810879 0.585214
outer loop
vertex 377.500000 -297.055176 -2.792970
vertex 385.500000 -297.055176 -2.792970
vertex 377.500000 -296.503052 -3.557997
endloop
endfacet
facet normal 0.000000 0.810879 0.585214
outer loop
vertex 377.500000 -296.503052 -3.557997
vertex 385.500000 -297.055176 -2.792970
vertex 385.500000 -296.503052 -3.557997
endloop
endfacet
facet normal 0.000000 0.925406 0.378977
outer loop
vertex 377.500000 -296.503052 -3.557997
vertex 385.500000 -296.503052 -3.557997
vertex 377.500000 -296.145477 -4.431061
endloop
endfacet
facet normal 0.000000 0.925382 0.379035
outer loop
vertex 377.500000 -296.145477 -4.431061
vertex 385.500000 -296.503052 -3.557997
vertex 385.500000 -296.145477 -4.431061
endloop
endfacet
facet normal 0.000000 0.988426 0.151706
outer loop
vertex 377.500000 -296.145477 -4.431061
vertex 385.500000 -296.145477 -4.431061
vertex 377.500000 -296.002319 -5.363591
endloop
endfacet
facet normal 0.000000 0.988416 0.151769
outer loop
vertex 377.500000 -296.002319 -5.363591
vertex 385.500000 -296.145477 -4.431061
vertex 385.500000 -296.002319 -5.363591
endloop
endfacet
facet normal 0.000000 0.996468 -0.083972
outer loop
vertex 377.500000 -296.002319 -5.363591
vertex 385.500000 -296.002319 -5.363591
vertex 377.500000 -296.081573 -6.303710
endloop
endfacet
facet normal 0.000000 0.996463 -0.084036
outer loop
vertex 377.500000 -296.081573 -6.303710
vertex 385.500000 -296.002319 -5.363591
vertex 385.500000 -296.081573 -6.303710
endloop
endfacet
facet normal 0.000000 0.949073 -0.315056
outer loop
vertex 377.500000 -296.081573 -6.303710
vertex 385.500000 -296.081573 -6.303710
vertex 377.500000 -296.378815 -7.199117
endloop
endfacet
facet normal 0.000000 0.949073 -0.315056
outer loop
vertex 377.500000 -296.378815 -7.199117
vertex 385.500000 -296.081573 -6.303710
vertex 385.500000 -296.378815 -7.199117
endloop
endfacet
facet normal 0.000000 0.848872 -0.528598
outer loop
vertex 377.500000 -296.378815 -7.199117
vertex 385.500000 -296.378815 -7.199117
vertex 377.500000 -296.877502 -8.000000
endloop
endfacet
facet normal 0.000000 0.848899 -0.528555
outer loop
vertex 377.500000 -296.877502 -8.000000
vertex 385.500000 -296.378815 -7.199117
vertex 385.500000 -296.877502 -8.000000
endloop
endfacet
facet normal -1.000000 0.000000 0.000000
outer loop
vertex 377.500000 -296.877502 -8.000000
vertex 377.500000 -303.122498 -8.000000
vertex 377.500000 -296.378815 -7.199117
endloop
endfacet
facet normal -1.000000 0.000000 0.000000
outer loop
vertex 377.500000 -296.378815 -7.199117
vertex 377.500000 -303.122498 -8.000000
vertex 377.500000 -303.621185 -7.199117
endloop
endfacet
facet normal -1.000000 0.000000 0.000000
outer loop
vertex 377.500000 -296.378815 -7.199117
vertex 377.500000 -303.621185 -7.199117
vertex 377.500000 -296.081573 -6.303710
endloop
endfacet
facet normal -1.000000 0.000000 0.000000
outer loop
vertex 377.500000 -296.081573 -6.303710
vertex 377.500000 -303.621185 -7.199117
vertex 377.500000 -303.918427 -6.303710
endloop
endfacet
facet normal -1.000000 0.000000 0.000000
outer loop
vertex 377.500000 -296.081573 -6.303710
vertex 377.500000 -303.918427 -6.303710
vertex 377.500000 -296.002319 -5.363591
endloop
endfacet
facet normal -1.000000 0.000000 0.000000
outer loop
vertex 377.500000 -296.002319 -5.363591
vertex 377.500000 -303.918427 -6.303710
vertex 377.500000 -303.997681 -5.363591
endloop
endfacet
facet normal -1.000000 0.000000 0.000000
outer loop
vertex 377.500000 -296.002319 -5.363591
vertex 377.500000 -303.997681 -5.363591
vertex 377.500000 -296.145477 -4.431061
endloop
endfacet
facet normal -1.000000 0.000000 0.000000
outer loop
vertex 377.500000 -296.145477 -4.431061
vertex 377.500000 -303.997681 -5.363591
vertex 377.500000 -303.854523 -4.431061
endloop
endfacet
facet normal -1.000000 0.000000 0.000000
outer loop
vertex 377.500000 -296.145477 -4.431061
vertex 377.500000 -303.854523 -4.431061
vertex 377.500000 -296.503052 -3.557997
endloop
endfacet
facet normal -1.000000 0.000000 0.000000
outer loop
vertex 377.500000 -296.503052 -3.557997
vertex 377.500000 -303.854523 -4.431061
vertex 377.500000 -303.496948 -3.557997
endloop
endfacet
facet normal -1.000000 0.000000 0.000000
outer loop
vertex 377.500000 -296.503052 -3.557997
vertex 377.500000 -303.496948 -3.557997
vertex 377.500000 -297.055176 -2.792970
endloop
endfacet
facet normal -1.000000 0.000000 0.000000
outer loop
vertex 377.500000 -297.055176 -2.792970
vertex 377.500000 -303.496948 -3.557997
vertex 377.500000 -297.771118 -2.178539
endloop
endfacet
facet normal -1.000000 0.000000 0.000000
outer loop
vertex 377.500000 -297.771118 -2.178539
vertex 377.500000 -303.496948 -3.557997
vertex 377.500000 -298.611053 -1.748886
endloop
endfacet
facet normal -1.000000 0.000000 0.000000
outer loop
vertex 377.500000 -298.611053 -1.748886
vertex 377.500000 -303.496948 -3.557997
vertex 377.500000 -299.528259 -1.527913
endloop
endfacet
facet normal -1.000000 0.000000 0.000000
outer loop
vertex 377.500000 -299.528259 -1.527913
vertex 377.500000 -303.496948 -3.557997
vertex 377.500000 -300.471741 -1.527913
endloop
endfacet
facet normal -1.000000 0.000000 0.000000
outer loop
vertex 377.500000 -300.471741 -1.527913
vertex 377.500000 -303.496948 -3.557997
vertex 377.500000 -301.388947 -1.748886
endloop
endfacet
facet normal -1.000000 0.000000 0.000000
outer loop
vertex 377.500000 -301.388947 -1.748886
vertex 377.500000 -303.496948 -3.557997
vertex 377.500000 -302.228882 -2.178539
endloop
endfacet
facet normal -1.000000 0.000293 0.000000
outer loop
vertex 377.500000 -302.228882 -2.178539
vertex 377.500000 -303.496948 -3.557997
vertex 377.500000 -302.944824 -2.792970
endloop
endfacet
facet normal 0.000000 -0.944569 -0.328313
outer loop
vertex 385.500000 -305.454346 -8.000000
vertex 389.500000 -305.454346 -8.000000
vertex 385.500000 -305.829102 -6.921814
endloop
endfacet
facet normal 0.000000 -0.944569 -0.328313
outer loop
vertex 385.500000 -305.829102 -6.921814
vertex 389.500000 -305.454346 -8.000000
vertex 389.500000 -305.829102 -6.921814
endloop
endfacet
facet normal 0.000000 -0.989648 -0.143515
outer loop
vertex 385.500000 -305.829102 -6.921814
vertex 389.500000 -305.829102 -6.921814
vertex 385.500000 -305.992889 -5.792169
endloop
endfacet
facet normal 0.000000 -0.989655 -0.143465
outer loop
vertex 385.500000 -305.992889 -5.792169
vertex 389.500000 -305.829102 -6.921814
vertex 389.500000 -305.992889 -5.792169
endloop
endfacet
facet normal 0.000000 -0.998915 0.046574
outer loop
vertex 385.500000 -305.992889 -5.792169
vertex 389.500000 -305.992889 -5.792169
vertex 385.500000 -305.939758 -4.651950
endloop
endfacet
facet normal 0.000000 -0.998917 0.046520
outer loop
vertex 385.500000 -305.939758 -4.651950
vertex 389.500000 -305.992889 -5.792169
vertex 389.500000 -305.939758 -4.651950
endloop
endfacet
facet normal 0.000000 -0.972032 0.234847
outer loop
vertex 385.500000 -305.939758 -4.651950
vertex 389.500000 -305.939758 -4.651950
vertex 385.500000 -305.671661 -3.542424
endloop
endfacet
facet normal 0.000000 -0.972020 0.234898
outer loop
vertex 385.500000 -305.671661 -3.542424
vertex 389.500000 -305.939758 -4.651950
vertex 389.500000 -305.671661 -3.542424
endloop
endfacet
facet normal 0.000000 -0.909970 0.414674
outer loop
vertex 385.500000 -305.671661 -3.542424
vertex 389.500000 -305.671661 -3.542424
vertex 385.500000 -305.198303 -2.503747
endloop
endfacet
facet normal 0.000000 -0.909950 0.414718
outer loop
vertex 385.500000 -305.198303 -2.503747
vertex 389.500000 -305.671661 -3.542424
vertex 389.500000 -305.198303 -2.503747
endloop
endfacet
facet normal 0.000000 -0.814956 0.579522
outer loop
vertex 385.500000 -305.198303 -2.503747
vertex 389.500000 -305.198303 -2.503747
vertex 385.500000 -304.536804 -1.573511
endloop
endfacet
facet normal 0.000000 -0.814956 0.579522
outer loop
vertex 385.500000 -304.536804 -1.573511
vertex 389.500000 -305.198303 -2.503747
vertex 389.500000 -304.536804 -1.573511
endloop
endfacet
facet normal 0.000000 -0.690466 0.723365
outer loop
vertex 385.500000 -304.536804 -1.573511
vertex 389.500000 -304.536804 -1.573511
vertex 385.500000 -303.711121 -0.785384
endloop
endfacet
facet normal 0.000000 -0.690459 0.723371
outer loop
vertex 385.500000 -303.711121 -0.785384
vertex 389.500000 -304.536804 -1.573511
vertex 389.500000 -303.711121 -0.785384
endloop
endfacet
facet normal 0.000000 -0.540966 0.841045
outer loop
vertex 385.500000 -303.711121 -0.785384
vertex 389.500000 -303.711121 -0.785384
vertex 385.500000 -302.751099 -0.167889
endloop
endfacet
facet normal 0.000000 -0.540966 0.841045
outer loop
vertex 385.500000 -302.751099 -0.167889
vertex 389.500000 -303.711121 -0.785384
vertex 389.500000 -302.751099 -0.167889
endloop
endfacet
facet normal 0.000000 -0.371909 0.928269
outer loop
vertex 385.500000 -302.751099 -0.167889
vertex 389.500000 -302.751099 -0.167889
vertex 385.500000 -301.691528 0.256625
endloop
endfacet
facet normal 0.000000 -0.371909 0.928269
outer loop
vertex 385.500000 -301.691528 0.256625
vertex 389.500000 -302.751099 -0.167889
vertex 389.500000 -301.691528 0.256625
endloop
endfacet
facet normal 0.000000 -0.189381 0.981904
outer loop
vertex 385.500000 -301.691528 0.256625
vertex 389.500000 -301.691528 0.256625
vertex 385.500000 -300.570740 0.472794
endloop
endfacet
facet normal 0.000000 -0.189384 0.981903
outer loop
vertex 385.500000 -300.570740 0.472794
vertex 389.500000 -301.691528 0.256625
vertex 389.500000 -300.570740 0.472794
endloop
endfacet
facet normal 0.000000 0.000000 1.000000
outer loop
vertex 385.500000 -300.570740 0.472794
vertex 389.500000 -300.570740 0.472794
vertex 385.500000 -299.429260 0.472794
endloop
endfacet
facet normal 0.000000 0.000000 1.000000
outer loop
vertex 385.500000 -299.429260 0.472794
vertex 389.500000 -300.570740 0.472794
vertex 389.500000 -299.429260 0.472794
endloop
endfacet
facet normal 0.000000 0.189381 0.981904
outer loop
vertex 385.500000 -299.429260 0.472794
vertex 389.500000 -299.429260 0.472794
vertex 385.500000 -298.308472 0.256625
endloop
endfacet
facet normal 0.000000 0.189384 0.981903
outer loop
vertex 385.500000 -298.308472 0.256625
vertex 389.500000 -299.429260 0.472794
vertex 389.500000 -298.308472 0.256625
endloop
endfacet
facet normal 0.000000 0.371909 0.928269
outer loop
vertex 385.500000 -298.308472 0.256625
vertex 389.500000 -298.308472 0.256625
vertex 385.500000 -297.248901 -0.167889
endloop
endfacet
facet normal 0.000000 0.371909 0.928269
outer loop
vertex 385.500000 -297.248901 -0.167889
vertex 389.500000 -298.308472 0.256625
vertex 389.500000 -297.248901 -0.167889
endloop
endfacet
facet normal 0.000000 0.540966 0.841045
outer loop
vertex 385.500000 -297.248901 -0.167889
vertex 389.500000 -297.248901 -0.167889
vertex 385.500000 -296.288879 -0.785384
endloop
endfacet
facet normal 0.000000 0.540966 0.841045
outer loop
vertex 385.500000 -296.288879 -0.785384
vertex 389.500000 -297.248901 -0.167889
vertex 389.500000 -296.288879 -0.785384
endloop
endfacet
facet normal 0.000000 0.690466 0.723365
outer loop
vertex 385.500000 -296.288879 -0.785384
vertex 389.500000 -296.288879 -0.785384
vertex 385.500000 -295.463196 -1.573511
endloop
endfacet
facet normal 0.000000 0.690459 0.723371
outer loop
vertex 385.500000 -295.463196 -1.573511
vertex 389.500000 -296.288879 -0.785384
vertex 389.500000 -295.463196 -1.573511
endloop
endfacet
facet normal 0.000000 0.814956 0.579522
outer loop
vertex 385.500000 -295.463196 -1.573511
vertex 389.500000 -295.463196 -1.573511
vertex 385.500000 -294.801697 -2.503747
endloop
endfacet
facet normal 0.000000 0.814956 0.579522
outer loop
vertex 385.500000 -294.801697 -2.503747
vertex 389.500000 -295.463196 -1.573511
vertex 389.500000 -294.801697 -2.503747
endloop
endfacet
facet normal 0.000000 0.909950 0.414718
outer loop
vertex 385.500000 -294.801697 -2.503747
vertex 389.500000 -294.801697 -2.503747
vertex 385.500000 -294.328339 -3.542424
endloop
endfacet
facet normal 0.000000 0.909970 0.414674
outer loop
vertex 385.500000 -294.328339 -3.542424
vertex 389.500000 -294.801697 -2.503747
vertex 389.500000 -294.328339 -3.542424
endloop
endfacet
facet normal 0.000000 0.972020 0.234898
outer loop
vertex 385.500000 -294.328339 -3.542424
vertex 389.500000 -294.328339 -3.542424
vertex 385.500000 -294.060242 -4.651950
endloop
endfacet
facet normal 0.000000 0.972032 0.234847
outer loop
vertex 385.500000 -294.060242 -4.651950
vertex 389.500000 -294.328339 -3.542424
vertex 389.500000 -294.060242 -4.651950
endloop
endfacet
facet normal 0.000000 0.998917 0.046520
outer loop
vertex 385.500000 -294.060242 -4.651950
vertex 389.500000 -294.060242 -4.651950
vertex 385.500000 -294.007111 -5.792169
endloop
endfacet
facet normal 0.000000 0.998915 0.046573
outer loop
vertex 385.500000 -294.007111 -5.792169
vertex 389.500000 -294.060242 -4.651950
vertex 389.500000 -294.007111 -5.792169
endloop
endfacet
facet normal 0.000000 0.989656 -0.143463
outer loop
vertex 385.500000 -294.007111 -5.792169
vertex 389.500000 -294.007111 -5.792169
vertex 385.500000 -294.170898 -6.921814
endloop
endfacet
facet normal 0.000000 0.989648 -0.143517
outer loop
vertex 385.500000 -294.170898 -6.921814
vertex 389.500000 -294.007111 -5.792169
vertex 389.500000 -294.170898 -6.921814
endloop
endfacet
facet normal 0.000000 0.944569 -0.328313
outer loop
vertex 385.500000 -294.170898 -6.921814
vertex 389.500000 -294.170898 -6.921814
vertex 385.500000 -294.545654 -8.000000
endloop
endfacet
facet normal 0.000000 0.944569 -0.328313
outer loop
vertex 385.500000 -294.545654 -8.000000
vertex 389.500000 -294.170898 -6.921814
vertex 389.500000 -294.545654 -8.000000
endloop
endfacet
facet normal 1.000000 0.000000 0.000000
outer loop
vertex 389.500000 -303.122498 -8.000000
vertex 389.500000 -303.621185 -7.199117
vertex 389.500000 -305.454346 -8.000000
endloop
endfacet
facet normal 1.000000 0.000007 0.000000
outer loop
vertex 389.500000 -305.454346 -8.000000
vertex 389.500000 -303.621185 -7.199117
vertex 389.500000 -305.829102 -6.921814
endloop
endfacet
facet normal 1.000000 0.000000 0.000000
outer loop
vertex 389.500000 -305.829102 -6.921814
vertex 389.500000 -303.621185 -7.199117
vertex 389.500000 -303.918427 -6.303710
endloop
endfacet
facet normal 1.000000 0.000000 0.000000
outer loop
vertex 389.500000 -305.829102 -6.921814
vertex 389.500000 -303.918427 -6.303710
vertex 389.500000 -305.992889 -5.792169
endloop
endfacet
facet normal 1.000000 0.000000 0.000000
outer loop
vertex 389.500000 -305.992889 -5.792169
vertex 389.500000 -303.918427 -6.303710
vertex 389.500000 -303.997681 -5.363591
endloop
endfacet
facet normal 1.000000 0.000000 0.000000
outer loop
vertex 389.500000 -305.992889 -5.792169
vertex 389.500000 -303.997681 -5.363591
vertex 389.500000 -305.939758 -4.651950
endloop
endfacet
facet normal 1.000000 0.000000 0.000000
outer loop
vertex 389.500000 -305.939758 -4.651950
vertex 389.500000 -303.997681 -5.363591
vertex 389.500000 -303.854523 -4.431061
endloop
endfacet
facet normal 1.000000 0.000000 0.000000
outer loop
vertex 389.500000 -305.939758 -4.651950
vertex 389.500000 -303.854523 -4.431061
vertex 389.500000 -305.671661 -3.542424
endloop
endfacet
facet normal 1.000000 0.000000 0.000000
outer loop
vertex 389.500000 -305.671661 -3.542424
vertex 389.500000 -303.854523 -4.431061
vertex 389.500000 -303.496948 -3.557997
endloop
endfacet
facet normal 1.000000 0.000027 0.000000
outer loop
vertex 389.500000 -305.671661 -3.542424
vertex 389.500000 -303.496948 -3.557997
vertex 389.500000 -305.198303 -2.503747
endloop
endfacet
facet normal 1.000000 0.000000 0.000000
outer loop
vertex 389.500000 -305.198303 -2.503747
vertex 389.500000 -303.496948 -3.557997
vertex 389.500000 -302.944824 -2.792970
endloop
endfacet
facet normal 1.000000 0.000000 0.000000
outer loop
vertex 389.500000 -305.198303 -2.503747
vertex 389.500000 -302.944824 -2.792970
vertex 389.500000 -304.536804 -1.573511
endloop
endfacet
facet normal 1.000000 0.000016 0.000000
outer loop
vertex 389.500000 -304.536804 -1.573511
vertex 389.500000 -302.944824 -2.792970
vertex 389.500000 -302.228882 -2.178539
endloop
endfacet
facet normal 1.000000 0.000000 0.000000
outer loop
vertex 389.500000 -304.536804 -1.573511
vertex 389.500000 -302.228882 -2.178539
vertex 389.500000 -303.711121 -0.785384
endloop
endfacet
facet normal 1.000000 -0.000051 0.000000
outer loop
vertex 389.500000 -303.711121 -0.785384
vertex 389.500000 -302.228882 -2.178539
vertex 389.500000 -301.388947 -1.748886
endloop
endfacet
facet normal 1.000000 0.000000 0.000000
outer loop
vertex 389.500000 -303.711121 -0.785384
vertex 389.500000 -301.388947 -1.748886
vertex 389.500000 -302.751099 -0.167889
endloop
endfacet
facet normal 1.000000 0.000054 0.000000
outer loop
vertex 389.500000 -302.751099 -0.167889
vertex 389.500000 -301.388947 -1.748886
vertex 389.500000 -301.691528 0.256625
endloop
endfacet
facet normal 1.000000 -0.000072 0.000000
outer loop
vertex 389.500000 -301.691528 0.256625
vertex 389.500000 -301.388947 -1.748886
vertex 389.500000 -300.471741 -1.527913
endloop
endfacet
facet normal 1.000000 0.000054 0.000000
outer loop
vertex 389.500000 -301.691528 0.256625
vertex 389.500000 -300.471741 -1.527913
vertex 389.500000 -300.570740 0.472794
endloop
endfacet
facet normal 1.000000 0.000000 0.000000
outer loop
vertex 389.500000 -300.570740 0.472794
vertex 389.500000 -300.471741 -1.527913
vertex 389.500000 -299.528259 -1.527913
endloop
endfacet
facet normal 1.000000 0.000000 0.000000
outer loop
vertex 389.500000 -300.570740 0.472794
vertex 389.500000 -299.528259 -1.527913
vertex 389.500000 -299.429260 0.472794
endloop
endfacet
facet normal 1.000000 -0.000054 0.000000
outer loop
vertex 389.500000 -299.429260 0.472794
vertex 389.500000 -299.528259 -1.527913
vertex 389.500000 -298.308472 0.256625
endloop
endfacet
facet normal 1.000000 0.000072 0.000000
outer loop
vertex 389.500000 -298.308472 0.256625
vertex 389.500000 -299.528259 -1.527913
vertex 389.500000 -298.611053 -1.748886
endloop
endfacet
facet normal 1.000000 -0.000054 0.000000
outer loop
vertex 389.500000 -298.308472 0.256625
vertex 389.500000 -298.611053 -1.748886
vertex 389.500000 -297.248901 -0.167889
endloop
endfacet
facet normal 1.000000 0.000026 0.000000
outer loop
vertex 389.500000 -297.248901 -0.167889
vertex 389.500000 -298.611053 -1.748886
vertex 389.500000 -296.288879 -0.785384
endloop
endfacet
facet normal 1.000000 0.000051 0.000000
outer loop
vertex 389.500000 -296.288879 -0.785384
vertex 389.500000 -298.611053 -1.748886
vertex 389.500000 -297.771118 -2.178539
endloop
endfacet
facet normal 1.000000 -0.000013 0.000000
outer loop
vertex 389.500000 -296.288879 -0.785384
vertex 389.500000 -297.771118 -2.178539
vertex 389.500000 -295.463196 -1.573511
endloop
endfacet
facet normal 1.000000 -0.000016 0.000000
outer loop
vertex 389.500000 -295.463196 -1.573511
vertex 389.500000 -297.771118 -2.178539
vertex 389.500000 -297.055176 -2.792970
endloop
endfacet
facet normal 1.000000 0.000000 0.000000
outer loop
vertex 389.500000 -295.463196 -1.573511
vertex 389.500000 -297.055176 -2.792970
vertex 389.500000 -294.801697 -2.503747
endloop
endfacet
facet normal 1.000000 0.000000 0.000000
outer loop
vertex 389.500000 -294.801697 -2.503747
vertex 389.500000 -297.055176 -2.792970
vertex 389.500000 -296.503052 -3.557997
endloop
endfacet
facet normal 1.000000 -0.000018 0.000000
outer loop
vertex 389.500000 -294.801697 -2.503747
vertex 389.500000 -296.503052 -3.557997
vertex 389.500000 -294.328339 -3.542424
endloop
endfacet
facet normal 1.000000 0.000000 0.000000
outer loop
vertex 389.500000 -294.328339 -3.542424
vertex 389.500000 -296.503052 -3.557997
vertex 389.500000 -296.145477 -4.431061
endloop
endfacet
facet normal 1.000000 0.000014 0.000000
outer loop
vertex 389.500000 -294.328339 -3.542424
vertex 389.500000 -296.145477 -4.431061
vertex 389.500000 -294.060242 -4.651950
endloop
endfacet
facet normal 1.000000 0.000000 0.000000
outer loop
vertex 389.500000 -294.060242 -4.651950
vertex 389.500000 -296.145477 -4.431061
vertex 389.500000 -296.002319 -5.363591
endloop
endfacet
facet normal 1.000000 0.000000 0.000000
outer loop
vertex 389.500000 -294.060242 -4.651950
vertex 389.500000 -296.002319 -5.363591
vertex 389.500000 -294.007111 -5.792169
endloop
endfacet
facet normal 1.000000 0.000000 0.000000
outer loop
vertex 389.500000 -294.007111 -5.792169
vertex 389.500000 -296.002319 -5.363591
vertex 389.500000 -296.081573 -6.303710
endloop
endfacet
facet normal 1.000000 0.000000 0.000000
outer loop
vertex 389.500000 -294.007111 -5.792169
vertex 389.500000 -296.081573 -6.303710
vertex 389.500000 -294.170898 -6.921814
endloop
endfacet
facet normal 1.000000 0.000000 0.000000
outer loop
vertex 389.500000 -294.170898 -6.921814
vertex 389.500000 -296.081573 -6.303710
vertex 389.500000 -296.378815 -7.199117
endloop
endfacet
facet normal 1.000000 0.000000 0.000000
outer loop
vertex 389.500000 -294.170898 -6.921814
vertex 389.500000 -296.378815 -7.199117
vertex 389.500000 -294.545654 -8.000000
endloop
endfacet
facet normal 1.000000 0.000000 0.000000
outer loop
vertex 389.500000 -294.545654 -8.000000
vertex 389.500000 -296.378815 -7.199117
vertex 389.500000 -296.877502 -8.000000
endloop
endfacet
endsolid TwoBoardsThroghPlaneWith30mmHole v2.005
