solid TwoBoardsThroghPlaneWith30mmHole v3.002
facet normal 0.130528 -0.991445 0.000000
outer loop
vertex -241.500000 418.500000 3.000000
vertex -241.500000 418.500000 0.000000
vertex -241.111771 418.551117 3.000000
endloop
endfacet
facet normal 0.130555 -0.991441 0.000000
outer loop
vertex -241.111771 418.551117 3.000000
vertex -241.500000 418.500000 0.000000
vertex -241.111771 418.551117 0.000000
endloop
endfacet
facet normal 0.382622 -0.923905 0.000000
outer loop
vertex -241.111771 418.551117 3.000000
vertex -241.111771 418.551117 0.000000
vertex -240.750000 418.700958 3.000000
endloop
endfacet
facet normal 0.382696 -0.923874 0.000000
outer loop
vertex -240.750000 418.700958 3.000000
vertex -241.111771 418.551117 0.000000
vertex -240.750000 418.700958 0.000000
endloop
endfacet
facet normal 0.608742 -0.793368 0.000000
outer loop
vertex -240.750000 418.700958 3.000000
vertex -240.750000 418.700958 0.000000
vertex -240.439346 418.939331 3.000000
endloop
endfacet
facet normal 0.608793 -0.793329 0.000000
outer loop
vertex -240.439346 418.939331 3.000000
vertex -240.750000 418.700958 0.000000
vertex -240.439346 418.939331 0.000000
endloop
endfacet
facet normal 0.793330 -0.608791 0.000000
outer loop
vertex -240.439346 418.939331 3.000000
vertex -240.439346 418.939331 0.000000
vertex -240.200958 419.250000 3.000000
endloop
endfacet
facet normal 0.793381 -0.608726 0.000000
outer loop
vertex -240.200958 419.250000 3.000000
vertex -240.439346 418.939331 0.000000
vertex -240.200958 419.250000 0.000000
endloop
endfacet
facet normal 0.923875 -0.382694 0.000000
outer loop
vertex -240.200958 419.250000 3.000000
vertex -240.200958 419.250000 0.000000
vertex -240.051117 419.611786 3.000000
endloop
endfacet
facet normal 0.923875 -0.382694 0.000000
outer loop
vertex -240.051117 419.611786 3.000000
vertex -240.200958 419.250000 0.000000
vertex -240.051117 419.611786 0.000000
endloop
endfacet
facet normal 0.991446 -0.130520 0.000000
outer loop
vertex -240.051117 419.611786 3.000000
vertex -240.051117 419.611786 0.000000
vertex -240.000000 420.000000 3.000000
endloop
endfacet
facet normal 0.991446 -0.130520 0.000000
outer loop
vertex -240.000000 420.000000 3.000000
vertex -240.051117 419.611786 0.000000
vertex -240.000000 420.000000 0.000000
endloop
endfacet
facet normal 0.991446 0.130520 0.000000
outer loop
vertex -240.000000 420.000000 3.000000
vertex -240.000000 420.000000 0.000000
vertex -240.051117 420.388214 3.000000
endloop
endfacet
facet normal 0.991446 0.130520 0.000000
outer loop
vertex -240.051117 420.388214 3.000000
vertex -240.000000 420.000000 0.000000
vertex -240.051117 420.388214 0.000000
endloop
endfacet
facet normal 0.923875 0.382694 0.000000
outer loop
vertex -240.051117 420.388214 3.000000
vertex -240.051117 420.388214 0.000000
vertex -240.200958 420.750000 3.000000
endloop
endfacet
facet normal 0.923875 0.382694 0.000000
outer loop
vertex -240.200958 420.750000 3.000000
vertex -240.051117 420.388214 0.000000
vertex -240.200958 420.750000 0.000000
endloop
endfacet
facet normal 0.793381 0.608726 0.000000
outer loop
vertex -240.200958 420.750000 3.000000
vertex -240.200958 420.750000 0.000000
vertex -240.439346 421.060669 3.000000
endloop
endfacet
facet normal 0.793330 0.608791 0.000000
outer loop
vertex -240.439346 421.060669 3.000000
vertex -240.200958 420.750000 0.000000
vertex -240.439346 421.060669 0.000000
endloop
endfacet
facet normal 0.608793 0.793329 0.000000
outer loop
vertex -240.439346 421.060669 3.000000
vertex -240.439346 421.060669 0.000000
vertex -240.750000 421.299042 3.000000
endloop
endfacet
facet normal 0.608742 0.793368 0.000000
outer loop
vertex -240.750000 421.299042 3.000000
vertex -240.439346 421.060669 0.000000
vertex -240.750000 421.299042 0.000000
endloop
endfacet
facet normal 0.382696 0.923874 0.000000
outer loop
vertex -240.750000 421.299042 3.000000
vertex -240.750000 421.299042 0.000000
vertex -241.111771 421.448883 3.000000
endloop
endfacet
facet normal 0.382622 0.923905 0.000000
outer loop
vertex -241.111771 421.448883 3.000000
vertex -240.750000 421.299042 0.000000
vertex -241.111771 421.448883 0.000000
endloop
endfacet
facet normal 0.130555 0.991441 0.000000
outer loop
vertex -241.111771 421.448883 3.000000
vertex -241.111771 421.448883 0.000000
vertex -241.500000 421.500000 3.000000
endloop
endfacet
facet normal 0.130528 0.991445 0.000000
outer loop
vertex -241.500000 421.500000 3.000000
vertex -241.111771 421.448883 0.000000
vertex -241.500000 421.500000 0.000000
endloop
endfacet
facet normal 0.000000 -1.000000 0.000000
outer loop
vertex -328.000000 418.500000 0.000000
vertex -241.500000 418.500000 0.000000
vertex -328.000000 418.500000 3.000000
endloop
endfacet
facet normal 0.000000 -1.000000 0.000000
outer loop
vertex -328.000000 418.500000 3.000000
vertex -241.500000 418.500000 0.000000
vertex -241.500000 418.500000 3.000000
endloop
endfacet
facet normal 1.000000 0.000000 0.000000
outer loop
vertex -328.000000 410.000031 0.000000
vertex -328.000000 418.500000 0.000000
vertex -328.000000 410.000031 3.000000
endloop
endfacet
facet normal 1.000000 0.000000 0.000000
outer loop
vertex -328.000000 410.000031 3.000000
vertex -328.000000 418.500000 0.000000
vertex -328.000000 418.500000 3.000000
endloop
endfacet
facet normal -0.991453 -0.130464 0.000000
outer loop
vertex -332.000000 410.000031 3.000000
vertex -332.000000 410.000031 0.000000
vertex -331.931854 409.482391 3.000000
endloop
endfacet
facet normal -0.991433 -0.130617 0.000000
outer loop
vertex -331.931854 409.482391 3.000000
vertex -332.000000 410.000031 0.000000
vertex -331.931854 409.482391 0.000000
endloop
endfacet
facet normal -0.923915 -0.382597 0.000000
outer loop
vertex -331.931854 409.482391 3.000000
vertex -331.931854 409.482391 0.000000
vertex -331.732056 409.000031 3.000000
endloop
endfacet
facet normal -0.923860 -0.382730 0.000000
outer loop
vertex -331.732056 409.000031 3.000000
vertex -331.931854 409.482391 0.000000
vertex -331.732056 409.000031 0.000000
endloop
endfacet
facet normal -0.793323 -0.608801 0.000000
outer loop
vertex -331.732056 409.000031 3.000000
vertex -331.732056 409.000031 0.000000
vertex -331.414215 408.585815 3.000000
endloop
endfacet
facet normal -0.793398 -0.608703 0.000000
outer loop
vertex -331.414215 408.585815 3.000000
vertex -331.732056 409.000031 0.000000
vertex -331.414215 408.585815 0.000000
endloop
endfacet
facet normal -0.608717 -0.793387 0.000000
outer loop
vertex -331.414215 408.585815 3.000000
vertex -331.414215 408.585815 0.000000
vertex -331.000000 408.267975 3.000000
endloop
endfacet
facet normal -0.608792 -0.793330 0.000000
outer loop
vertex -331.000000 408.267975 3.000000
vertex -331.414215 408.585815 0.000000
vertex -331.000000 408.267975 0.000000
endloop
endfacet
facet normal -0.382694 -0.923875 0.000000
outer loop
vertex -331.000000 408.267975 3.000000
vertex -331.000000 408.267975 0.000000
vertex -330.517639 408.068176 3.000000
endloop
endfacet
facet normal -0.382667 -0.923886 0.000000
outer loop
vertex -330.517639 408.068176 3.000000
vertex -331.000000 408.267975 0.000000
vertex -330.517639 408.068176 0.000000
endloop
endfacet
facet normal -0.130526 -0.991445 0.000000
outer loop
vertex -330.517639 408.068176 3.000000
vertex -330.517639 408.068176 0.000000
vertex -330.000000 408.000031 3.000000
endloop
endfacet
facet normal -0.130516 -0.991446 0.000000
outer loop
vertex -330.000000 408.000031 3.000000
vertex -330.517639 408.068176 0.000000
vertex -330.000000 408.000031 0.000000
endloop
endfacet
facet normal 0.130516 -0.991446 0.000000
outer loop
vertex -330.000000 408.000031 3.000000
vertex -330.000000 408.000031 0.000000
vertex -329.482361 408.068176 3.000000
endloop
endfacet
facet normal 0.130526 -0.991445 0.000000
outer loop
vertex -329.482361 408.068176 3.000000
vertex -330.000000 408.000031 0.000000
vertex -329.482361 408.068176 0.000000
endloop
endfacet
facet normal 0.382667 -0.923886 0.000000
outer loop
vertex -329.482361 408.068176 3.000000
vertex -329.482361 408.068176 0.000000
vertex -329.000000 408.267975 3.000000
endloop
endfacet
facet normal 0.382694 -0.923875 0.000000
outer loop
vertex -329.000000 408.267975 3.000000
vertex -329.482361 408.068176 0.000000
vertex -329.000000 408.267975 0.000000
endloop
endfacet
facet normal 0.608792 -0.793330 0.000000
outer loop
vertex -329.000000 408.267975 3.000000
vertex -329.000000 408.267975 0.000000
vertex -328.585785 408.585815 3.000000
endloop
endfacet
facet normal 0.608717 -0.793387 0.000000
outer loop
vertex -328.585785 408.585815 3.000000
vertex -329.000000 408.267975 0.000000
vertex -328.585785 408.585815 0.000000
endloop
endfacet
facet normal 0.793398 -0.608703 0.000000
outer loop
vertex -328.585785 408.585815 3.000000
vertex -328.585785 408.585815 0.000000
vertex -328.267975 409.000031 3.000000
endloop
endfacet
facet normal 0.793398 -0.608703 0.000000
outer loop
vertex -328.267975 409.000031 3.000000
vertex -328.585785 408.585815 0.000000
vertex -328.267975 409.000031 0.000000
endloop
endfacet
facet normal 0.923833 -0.382797 0.000000
outer loop
vertex -328.267975 409.000031 3.000000
vertex -328.267975 409.000031 0.000000
vertex -328.068146 409.482391 3.000000
endloop
endfacet
facet normal 0.923888 -0.382664 0.000000
outer loop
vertex -328.068146 409.482391 3.000000
vertex -328.267975 409.000031 0.000000
vertex -328.068146 409.482391 0.000000
endloop
endfacet
facet normal 0.991433 -0.130617 0.000000
outer loop
vertex -328.068146 409.482391 3.000000
vertex -328.068146 409.482391 0.000000
vertex -328.000000 410.000031 3.000000
endloop
endfacet
facet normal 0.991453 -0.130464 0.000000
outer loop
vertex -328.000000 410.000031 3.000000
vertex -328.068146 409.482391 0.000000
vertex -328.000000 410.000031 0.000000
endloop
endfacet
facet normal -1.000000 0.000000 0.000000
outer loop
vertex -332.000000 430.000031 0.000000
vertex -332.000000 410.000031 0.000000
vertex -332.000000 430.000031 3.000000
endloop
endfacet
facet normal -1.000000 0.000000 0.000000
outer loop
vertex -332.000000 430.000031 3.000000
vertex -332.000000 410.000031 0.000000
vertex -332.000000 410.000031 3.000000
endloop
endfacet
facet normal 0.991453 0.130464 0.000000
outer loop
vertex -328.000000 430.000031 3.000000
vertex -328.000000 430.000031 0.000000
vertex -328.068146 430.517670 3.000000
endloop
endfacet
facet normal 0.991433 0.130617 0.000000
outer loop
vertex -328.068146 430.517670 3.000000
vertex -328.000000 430.000031 0.000000
vertex -328.068146 430.517670 0.000000
endloop
endfacet
facet normal 0.923888 0.382664 0.000000
outer loop
vertex -328.068146 430.517670 3.000000
vertex -328.068146 430.517670 0.000000
vertex -328.267975 431.000031 3.000000
endloop
endfacet
facet normal 0.923833 0.382797 0.000000
outer loop
vertex -328.267975 431.000031 3.000000
vertex -328.068146 430.517670 0.000000
vertex -328.267975 431.000031 0.000000
endloop
endfacet
facet normal 0.793398 0.608703 0.000000
outer loop
vertex -328.267975 431.000031 3.000000
vertex -328.267975 431.000031 0.000000
vertex -328.585785 431.414246 3.000000
endloop
endfacet
facet normal 0.793398 0.608703 0.000000
outer loop
vertex -328.585785 431.414246 3.000000
vertex -328.267975 431.000031 0.000000
vertex -328.585785 431.414246 0.000000
endloop
endfacet
facet normal 0.608680 0.793416 0.000000
outer loop
vertex -328.585785 431.414246 3.000000
vertex -328.585785 431.414246 0.000000
vertex -329.000000 431.732056 3.000000
endloop
endfacet
facet normal 0.608755 0.793358 0.000000
outer loop
vertex -329.000000 431.732056 3.000000
vertex -328.585785 431.414246 0.000000
vertex -329.000000 431.732056 0.000000
endloop
endfacet
facet normal 0.382694 0.923875 0.000000
outer loop
vertex -329.000000 431.732056 3.000000
vertex -329.000000 431.732056 0.000000
vertex -329.482361 431.931854 3.000000
endloop
endfacet
facet normal 0.382667 0.923886 0.000000
outer loop
vertex -329.482361 431.931854 3.000000
vertex -329.000000 431.732056 0.000000
vertex -329.482361 431.931854 0.000000
endloop
endfacet
facet normal 0.130584 0.991437 0.000000
outer loop
vertex -329.482361 431.931854 3.000000
vertex -329.482361 431.931854 0.000000
vertex -330.000000 432.000031 3.000000
endloop
endfacet
facet normal 0.130573 0.991439 0.000000
outer loop
vertex -330.000000 432.000031 3.000000
vertex -329.482361 431.931854 0.000000
vertex -330.000000 432.000031 0.000000
endloop
endfacet
facet normal -0.130573 0.991439 0.000000
outer loop
vertex -330.000000 432.000031 3.000000
vertex -330.000000 432.000031 0.000000
vertex -330.517639 431.931854 3.000000
endloop
endfacet
facet normal -0.130584 0.991437 0.000000
outer loop
vertex -330.517639 431.931854 3.000000
vertex -330.000000 432.000031 0.000000
vertex -330.517639 431.931854 0.000000
endloop
endfacet
facet normal -0.382667 0.923886 0.000000
outer loop
vertex -330.517639 431.931854 3.000000
vertex -330.517639 431.931854 0.000000
vertex -331.000000 431.732056 3.000000
endloop
endfacet
facet normal -0.382694 0.923875 0.000000
outer loop
vertex -331.000000 431.732056 3.000000
vertex -330.517639 431.931854 0.000000
vertex -331.000000 431.732056 0.000000
endloop
endfacet
facet normal -0.608755 0.793358 0.000000
outer loop
vertex -331.000000 431.732056 3.000000
vertex -331.000000 431.732056 0.000000
vertex -331.414215 431.414246 3.000000
endloop
endfacet
facet normal -0.608680 0.793416 0.000000
outer loop
vertex -331.414215 431.414246 3.000000
vertex -331.000000 431.732056 0.000000
vertex -331.414215 431.414246 0.000000
endloop
endfacet
facet normal -0.793398 0.608703 0.000000
outer loop
vertex -331.414215 431.414246 3.000000
vertex -331.414215 431.414246 0.000000
vertex -331.732056 431.000031 3.000000
endloop
endfacet
facet normal -0.793323 0.608801 0.000000
outer loop
vertex -331.732056 431.000031 3.000000
vertex -331.414215 431.414246 0.000000
vertex -331.732056 431.000031 0.000000
endloop
endfacet
facet normal -0.923860 0.382730 0.000000
outer loop
vertex -331.732056 431.000031 3.000000
vertex -331.732056 431.000031 0.000000
vertex -331.931854 430.517670 3.000000
endloop
endfacet
facet normal -0.923915 0.382597 0.000000
outer loop
vertex -331.931854 430.517670 3.000000
vertex -331.732056 431.000031 0.000000
vertex -331.931854 430.517670 0.000000
endloop
endfacet
facet normal -0.991433 0.130617 0.000000
outer loop
vertex -331.931854 430.517670 3.000000
vertex -331.931854 430.517670 0.000000
vertex -332.000000 430.000031 3.000000
endloop
endfacet
facet normal -0.991453 0.130464 0.000000
outer loop
vertex -332.000000 430.000031 3.000000
vertex -331.931854 430.517670 0.000000
vertex -332.000000 430.000031 0.000000
endloop
endfacet
facet normal 1.000000 0.000000 0.000000
outer loop
vertex -328.000000 421.500000 0.000000
vertex -328.000000 430.000031 0.000000
vertex -328.000000 421.500000 3.000000
endloop
endfacet
facet normal 1.000000 0.000000 0.000000
outer loop
vertex -328.000000 421.500000 3.000000
vertex -328.000000 430.000031 0.000000
vertex -328.000000 430.000031 3.000000
endloop
endfacet
facet normal 0.000000 1.000000 0.000000
outer loop
vertex -241.500000 421.500000 0.000000
vertex -328.000000 421.500000 0.000000
vertex -241.500000 421.500000 3.000000
endloop
endfacet
facet normal 0.000000 1.000000 0.000000
outer loop
vertex -241.500000 421.500000 3.000000
vertex -328.000000 421.500000 0.000000
vertex -328.000000 421.500000 3.000000
endloop
endfacet
facet normal 0.000000 0.000000 1.000000
outer loop
vertex -328.000000 421.500000 3.000000
vertex -241.500000 418.500000 3.000000
vertex -241.500000 421.500000 3.000000
endloop
endfacet
facet normal 0.000000 0.000000 1.000000
outer loop
vertex -241.500000 421.500000 3.000000
vertex -241.500000 418.500000 3.000000
vertex -240.000000 420.000000 3.000000
endloop
endfacet
facet normal 0.000000 0.000000 1.000000
outer loop
vertex -241.500000 421.500000 3.000000
vertex -240.000000 420.000000 3.000000
vertex -240.051117 420.388214 3.000000
endloop
endfacet
facet normal 0.000000 0.000000 1.000000
outer loop
vertex -328.000000 430.000031 3.000000
vertex -332.000000 430.000031 3.000000
vertex -328.000000 421.500000 3.000000
endloop
endfacet
facet normal 0.000000 0.000000 1.000000
outer loop
vertex -328.000000 421.500000 3.000000
vertex -332.000000 430.000031 3.000000
vertex -332.000000 410.000031 3.000000
endloop
endfacet
facet normal 0.000000 0.000000 1.000000
outer loop
vertex -328.000000 421.500000 3.000000
vertex -332.000000 410.000031 3.000000
vertex -328.000000 418.500000 3.000000
endloop
endfacet
facet normal 0.000000 0.000000 1.000000
outer loop
vertex -328.000000 418.500000 3.000000
vertex -332.000000 410.000031 3.000000
vertex -328.000000 410.000031 3.000000
endloop
endfacet
facet normal 0.000000 0.000000 1.000000
outer loop
vertex -328.000000 410.000031 3.000000
vertex -332.000000 410.000031 3.000000
vertex -328.068146 409.482391 3.000000
endloop
endfacet
facet normal 0.000000 0.000000 1.000000
outer loop
vertex -328.068146 409.482391 3.000000
vertex -332.000000 410.000031 3.000000
vertex -331.931854 409.482391 3.000000
endloop
endfacet
facet normal 0.000000 0.000000 1.000000
outer loop
vertex -328.068146 409.482391 3.000000
vertex -331.931854 409.482391 3.000000
vertex -328.267975 409.000031 3.000000
endloop
endfacet
facet normal 0.000000 0.000000 1.000000
outer loop
vertex -328.267975 409.000031 3.000000
vertex -331.931854 409.482391 3.000000
vertex -331.732056 409.000031 3.000000
endloop
endfacet
facet normal 0.000000 0.000000 1.000000
outer loop
vertex -328.267975 409.000031 3.000000
vertex -331.732056 409.000031 3.000000
vertex -328.585785 408.585815 3.000000
endloop
endfacet
facet normal 0.000000 0.000000 1.000000
outer loop
vertex -328.585785 408.585815 3.000000
vertex -331.732056 409.000031 3.000000
vertex -331.414215 408.585815 3.000000
endloop
endfacet
facet normal 0.000000 0.000000 1.000000
outer loop
vertex -328.585785 408.585815 3.000000
vertex -331.414215 408.585815 3.000000
vertex -329.000000 408.267975 3.000000
endloop
endfacet
facet normal 0.000000 0.000000 1.000000
outer loop
vertex -329.000000 408.267975 3.000000
vertex -331.414215 408.585815 3.000000
vertex -331.000000 408.267975 3.000000
endloop
endfacet
facet normal 0.000000 0.000000 1.000000
outer loop
vertex -329.000000 408.267975 3.000000
vertex -331.000000 408.267975 3.000000
vertex -329.482361 408.068176 3.000000
endloop
endfacet
facet normal 0.000000 0.000000 1.000000
outer loop
vertex -329.482361 408.068176 3.000000
vertex -331.000000 408.267975 3.000000
vertex -330.517639 408.068176 3.000000
endloop
endfacet
facet normal 0.000000 0.000000 1.000000
outer loop
vertex -329.482361 408.068176 3.000000
vertex -330.517639 408.068176 3.000000
vertex -330.000000 408.000031 3.000000
endloop
endfacet
facet normal 0.000000 0.000000 1.000000
outer loop
vertex -332.000000 430.000031 3.000000
vertex -328.000000 430.000031 3.000000
vertex -331.931854 430.517670 3.000000
endloop
endfacet
facet normal 0.000000 0.000000 1.000000
outer loop
vertex -331.931854 430.517670 3.000000
vertex -328.000000 430.000031 3.000000
vertex -328.068146 430.517670 3.000000
endloop
endfacet
facet normal 0.000000 0.000000 1.000000
outer loop
vertex -331.931854 430.517670 3.000000
vertex -328.068146 430.517670 3.000000
vertex -331.732056 431.000031 3.000000
endloop
endfacet
facet normal 0.000000 0.000000 1.000000
outer loop
vertex -331.732056 431.000031 3.000000
vertex -328.068146 430.517670 3.000000
vertex -328.267975 431.000031 3.000000
endloop
endfacet
facet normal 0.000000 0.000000 1.000000
outer loop
vertex -331.732056 431.000031 3.000000
vertex -328.267975 431.000031 3.000000
vertex -331.414215 431.414246 3.000000
endloop
endfacet
facet normal 0.000000 0.000000 1.000000
outer loop
vertex -331.414215 431.414246 3.000000
vertex -328.267975 431.000031 3.000000
vertex -328.585785 431.414246 3.000000
endloop
endfacet
facet normal 0.000000 0.000000 1.000000
outer loop
vertex -331.414215 431.414246 3.000000
vertex -328.585785 431.414246 3.000000
vertex -331.000000 431.732056 3.000000
endloop
endfacet
facet normal 0.000000 0.000000 1.000000
outer loop
vertex -331.000000 431.732056 3.000000
vertex -328.585785 431.414246 3.000000
vertex -329.000000 431.732056 3.000000
endloop
endfacet
facet normal 0.000000 0.000000 1.000000
outer loop
vertex -331.000000 431.732056 3.000000
vertex -329.000000 431.732056 3.000000
vertex -330.517639 431.931854 3.000000
endloop
endfacet
facet normal 0.000000 0.000000 1.000000
outer loop
vertex -330.517639 431.931854 3.000000
vertex -329.000000 431.732056 3.000000
vertex -329.482361 431.931854 3.000000
endloop
endfacet
facet normal 0.000000 0.000000 1.000000
outer loop
vertex -330.517639 431.931854 3.000000
vertex -329.482361 431.931854 3.000000
vertex -330.000000 432.000031 3.000000
endloop
endfacet
facet normal 0.000000 0.000000 1.000000
outer loop
vertex -328.000000 418.500000 3.000000
vertex -241.500000 418.500000 3.000000
vertex -328.000000 421.500000 3.000000
endloop
endfacet
facet normal 0.000000 0.000000 1.000000
outer loop
vertex -241.111771 418.551117 3.000000
vertex -240.750000 418.700958 3.000000
vertex -241.500000 418.500000 3.000000
endloop
endfacet
facet normal 0.000000 0.000000 1.000000
outer loop
vertex -241.500000 418.500000 3.000000
vertex -240.750000 418.700958 3.000000
vertex -240.439346 418.939331 3.000000
endloop
endfacet
facet normal 0.000000 0.000000 1.000000
outer loop
vertex -241.500000 418.500000 3.000000
vertex -240.439346 418.939331 3.000000
vertex -240.200958 419.250000 3.000000
endloop
endfacet
facet normal 0.000000 0.000000 1.000000
outer loop
vertex -240.200958 419.250000 3.000000
vertex -240.051117 419.611786 3.000000
vertex -241.500000 418.500000 3.000000
endloop
endfacet
facet normal 0.000000 0.000000 1.000000
outer loop
vertex -241.500000 418.500000 3.000000
vertex -240.051117 419.611786 3.000000
vertex -240.000000 420.000000 3.000000
endloop
endfacet
facet normal 0.000000 0.000000 1.000000
outer loop
vertex -240.051117 420.388214 3.000000
vertex -240.200958 420.750000 3.000000
vertex -241.500000 421.500000 3.000000
endloop
endfacet
facet normal 0.000000 0.000000 1.000000
outer loop
vertex -241.500000 421.500000 3.000000
vertex -240.200958 420.750000 3.000000
vertex -240.439346 421.060669 3.000000
endloop
endfacet
facet normal 0.000000 0.000000 1.000000
outer loop
vertex -241.500000 421.500000 3.000000
vertex -240.439346 421.060669 3.000000
vertex -240.750000 421.299042 3.000000
endloop
endfacet
facet normal 0.000000 0.000000 1.000000
outer loop
vertex -240.750000 421.299042 3.000000
vertex -241.111771 421.448883 3.000000
vertex -241.500000 421.500000 3.000000
endloop
endfacet
facet normal 0.000000 0.000000 -1.000000
outer loop
vertex -241.500000 421.500000 0.000000
vertex -328.000000 418.500000 0.000000
vertex -328.000000 421.500000 0.000000
endloop
endfacet
facet normal 0.000000 0.000000 -1.000000
outer loop
vertex -328.000000 421.500000 0.000000
vertex -328.000000 418.500000 0.000000
vertex -332.000000 410.000031 0.000000
endloop
endfacet
facet normal 0.000000 0.000000 -1.000000
outer loop
vertex -328.000000 421.500000 0.000000
vertex -332.000000 410.000031 0.000000
vertex -332.000000 430.000031 0.000000
endloop
endfacet
facet normal 0.000000 0.000000 -1.000000
outer loop
vertex -241.111771 421.448883 0.000000
vertex -240.750000 421.299042 0.000000
vertex -241.500000 421.500000 0.000000
endloop
endfacet
facet normal 0.000000 0.000000 -1.000000
outer loop
vertex -241.500000 421.500000 0.000000
vertex -240.750000 421.299042 0.000000
vertex -240.439346 421.060669 0.000000
endloop
endfacet
facet normal 0.000000 0.000000 -1.000000
outer loop
vertex -241.500000 421.500000 0.000000
vertex -240.439346 421.060669 0.000000
vertex -240.200958 420.750000 0.000000
endloop
endfacet
facet normal 0.000000 0.000000 -1.000000
outer loop
vertex -240.200958 420.750000 0.000000
vertex -240.051117 420.388214 0.000000
vertex -241.500000 421.500000 0.000000
endloop
endfacet
facet normal 0.000000 0.000000 -1.000000
outer loop
vertex -241.500000 421.500000 0.000000
vertex -240.051117 420.388214 0.000000
vertex -240.000000 420.000000 0.000000
endloop
endfacet
facet normal 0.000000 0.000000 -1.000000
outer loop
vertex -241.500000 421.500000 0.000000
vertex -240.000000 420.000000 0.000000
vertex -241.500000 418.500000 0.000000
endloop
endfacet
facet normal 0.000000 0.000000 -1.000000
outer loop
vertex -241.500000 418.500000 0.000000
vertex -240.000000 420.000000 0.000000
vertex -240.051117 419.611786 0.000000
endloop
endfacet
facet normal 0.000000 0.000000 -1.000000
outer loop
vertex -241.500000 418.500000 0.000000
vertex -240.051117 419.611786 0.000000
vertex -240.200958 419.250000 0.000000
endloop
endfacet
facet normal 0.000000 0.000000 -1.000000
outer loop
vertex -240.200958 419.250000 0.000000
vertex -240.439346 418.939331 0.000000
vertex -241.500000 418.500000 0.000000
endloop
endfacet
facet normal 0.000000 0.000000 -1.000000
outer loop
vertex -241.500000 418.500000 0.000000
vertex -240.439346 418.939331 0.000000
vertex -240.750000 418.700958 0.000000
endloop
endfacet
facet normal 0.000000 0.000000 -1.000000
outer loop
vertex -241.500000 418.500000 0.000000
vertex -240.750000 418.700958 0.000000
vertex -241.111771 418.551117 0.000000
endloop
endfacet
facet normal 0.000000 0.000000 -1.000000
outer loop
vertex -241.500000 418.500000 0.000000
vertex -328.000000 418.500000 0.000000
vertex -241.500000 421.500000 0.000000
endloop
endfacet
facet normal 0.000000 0.000000 -1.000000
outer loop
vertex -328.000000 418.500000 0.000000
vertex -328.000000 410.000031 0.000000
vertex -332.000000 410.000031 0.000000
endloop
endfacet
facet normal 0.000000 0.000000 -1.000000
outer loop
vertex -332.000000 410.000031 0.000000
vertex -328.000000 410.000031 0.000000
vertex -331.931854 409.482391 0.000000
endloop
endfacet
facet normal 0.000000 0.000000 -1.000000
outer loop
vertex -331.931854 409.482391 0.000000
vertex -328.000000 410.000031 0.000000
vertex -328.068146 409.482391 0.000000
endloop
endfacet
facet normal 0.000000 0.000000 -1.000000
outer loop
vertex -331.931854 409.482391 0.000000
vertex -328.068146 409.482391 0.000000
vertex -331.732056 409.000031 0.000000
endloop
endfacet
facet normal 0.000000 0.000000 -1.000000
outer loop
vertex -331.732056 409.000031 0.000000
vertex -328.068146 409.482391 0.000000
vertex -328.267975 409.000031 0.000000
endloop
endfacet
facet normal 0.000000 0.000000 -1.000000
outer loop
vertex -331.732056 409.000031 0.000000
vertex -328.267975 409.000031 0.000000
vertex -331.414215 408.585815 0.000000
endloop
endfacet
facet normal 0.000000 0.000000 -1.000000
outer loop
vertex -331.414215 408.585815 0.000000
vertex -328.267975 409.000031 0.000000
vertex -328.585785 408.585815 0.000000
endloop
endfacet
facet normal 0.000000 0.000000 -1.000000
outer loop
vertex -331.414215 408.585815 0.000000
vertex -328.585785 408.585815 0.000000
vertex -331.000000 408.267975 0.000000
endloop
endfacet
facet normal 0.000000 0.000000 -1.000000
outer loop
vertex -331.000000 408.267975 0.000000
vertex -328.585785 408.585815 0.000000
vertex -329.000000 408.267975 0.000000
endloop
endfacet
facet normal 0.000000 0.000000 -1.000000
outer loop
vertex -331.000000 408.267975 0.000000
vertex -329.000000 408.267975 0.000000
vertex -330.517639 408.068176 0.000000
endloop
endfacet
facet normal 0.000000 0.000000 -1.000000
outer loop
vertex -330.517639 408.068176 0.000000
vertex -329.000000 408.267975 0.000000
vertex -329.482361 408.068176 0.000000
endloop
endfacet
facet normal 0.000000 0.000000 -1.000000
outer loop
vertex -330.517639 408.068176 0.000000
vertex -329.482361 408.068176 0.000000
vertex -330.000000 408.000031 0.000000
endloop
endfacet
facet normal 0.000000 0.000000 -1.000000
outer loop
vertex -331.931854 430.517670 0.000000
vertex -328.068146 430.517670 0.000000
vertex -332.000000 430.000031 0.000000
endloop
endfacet
facet normal 0.000000 0.000000 -1.000000
outer loop
vertex -332.000000 430.000031 0.000000
vertex -328.068146 430.517670 0.000000
vertex -328.000000 430.000031 0.000000
endloop
endfacet
facet normal 0.000000 0.000000 -1.000000
outer loop
vertex -332.000000 430.000031 0.000000
vertex -328.000000 430.000031 0.000000
vertex -328.000000 421.500000 0.000000
endloop
endfacet
facet normal 0.000000 0.000000 -1.000000
outer loop
vertex -328.068146 430.517670 0.000000
vertex -331.931854 430.517670 0.000000
vertex -328.267975 431.000031 0.000000
endloop
endfacet
facet normal 0.000000 0.000000 -1.000000
outer loop
vertex -328.267975 431.000031 0.000000
vertex -331.931854 430.517670 0.000000
vertex -331.732056 431.000031 0.000000
endloop
endfacet
facet normal 0.000000 0.000000 -1.000000
outer loop
vertex -328.267975 431.000031 0.000000
vertex -331.732056 431.000031 0.000000
vertex -328.585785 431.414246 0.000000
endloop
endfacet
facet normal 0.000000 0.000000 -1.000000
outer loop
vertex -328.585785 431.414246 0.000000
vertex -331.732056 431.000031 0.000000
vertex -331.414215 431.414246 0.000000
endloop
endfacet
facet normal 0.000000 0.000000 -1.000000
outer loop
vertex -328.585785 431.414246 0.000000
vertex -331.414215 431.414246 0.000000
vertex -329.000000 431.732056 0.000000
endloop
endfacet
facet normal 0.000000 0.000000 -1.000000
outer loop
vertex -329.000000 431.732056 0.000000
vertex -331.414215 431.414246 0.000000
vertex -331.000000 431.732056 0.000000
endloop
endfacet
facet normal 0.000000 0.000000 -1.000000
outer loop
vertex -329.000000 431.732056 0.000000
vertex -331.000000 431.732056 0.000000
vertex -329.482361 431.931854 0.000000
endloop
endfacet
facet normal 0.000000 0.000000 -1.000000
outer loop
vertex -329.482361 431.931854 0.000000
vertex -331.000000 431.732056 0.000000
vertex -330.517639 431.931854 0.000000
endloop
endfacet
facet normal 0.000000 0.000000 -1.000000
outer loop
vertex -329.482361 431.931854 0.000000
vertex -330.517639 431.931854 0.000000
vertex -330.000000 432.000031 0.000000
endloop
endfacet
endsolid TwoBoardsThroghPlaneWith30mmHole v3.002
